<?xml version="1.0" encoding="UTF-8"?>
<svg id="Layer_1" data-name="Layer 1" xmlns="http://www.w3.org/2000/svg" viewBox="0 0 713.91 365.22">
  <defs>
    <style>
      .cls-1 {
        fill: #fff;
      }

      .cls-2 {
        fill: #009688;
      }

      .cls-3 {
        fill: #d4e157;
      }

      .cls-4 {
        fill: #00796b;
      }
    </style>
  </defs>
  <path class="cls-4" d="M0,15.29H263.71c51.46,0,93.25,41.78,93.25,93.25v93.41H93.25C41.79,201.95,0,160.16,0,108.69V15.29H0Z"/>
  <g>
    <path class="cls-3" d="M613.63,15.28h-163.33c-51.55,0-93.33,41.79-93.33,93.33v93.33h93.33c17,0,32.94-4.55,46.67-12.49v12.49c0,25.77-20.89,46.67-46.67,46.67h-163.33c-12.89,0-23.33,10.45-23.33,23.33s10.45,23.33,23.33,23.33h163.33c51.55,0,93.33-41.79,93.33-93.33V108.61h-46.67c0,25.77-20.89,46.67-46.67,46.67h-46.67v-46.67c0-25.77,20.89-46.67,46.67-46.67h163.33c12.89,0,23.33-10.45,23.33-23.33s-10.45-23.33-23.33-23.33Z"/>
    <circle class="cls-3" cx="454.32" cy="341.88" r="23.33"/>
  </g>
  <g>
    <path id="Path_82" data-name="Path 82" class="cls-1" d="M22.28,27.66l6.05-1.47,12.54-1.38,29.49-1.47,31.3-.35,32.08,.15,26.12-.07,9.3,.35,12.24-9.2,32.82,4.48,1.03,6.41-.43,14.19-1.09,16.2-1.32,6.4-3.44,.35-5.24-.35h-2.62l3.03,12.06,14.95,12.64,10.59,21.14,17.25,33.86,7.31-46.79,5.36-22.39,4.61-10.41,5.79-6.42,1.32-.09,.38,1.23-1.96,5.56-.62,2.14,3.13-1.54,1.84,.37-.6,2.57-.65,1.32,3.22-.93,1,.28,.15,1.47-1.64,2.16,.13,.64,2.27-1.03,1.49,.41-.53,1.88-2.85,2.53-1.99,10.92s-6.49,23.41-6.44,22.98-13.92,48.56-13.92,48.56l35.41,5.45,52.62,10.99v5.36l-4.15,1.82-37.4,3.12-47.52,2.55-29.76,2.77-22.56,2.42-24.47,.89-24.42,2.01-4.04-2.01-19.11-5.6-21.79-5.71-46.31-14.1,1.5-8.34-8.07-22.92-7.91-23.52-15.52-44.75-10.64-29.23v-6.57l2.68-3.98h0Zm200.2,122.2l1.05,3.59,6.51,1.21,.87-3.03-7.14-9.69-4.32-1.95,3.03,9.86h0Z"/>
    <path id="Path_83" data-name="Path 83" class="cls-3" d="M118.44,102.46l3.72,20.24,6.49,24.21-2.72,.29-5.97,.18-9.4,.95-21.73,1.95-22.1,2.9-5.08-13.75-7.52-20.73-8.32-24.62-10.51-31.72-6.07-19.18-2.29-8.3,8.15-.93,22.14-1.04,32.38-1.69,31.65-1.32,15.5-1.04,22.44-.78,6.44-.38,.26,3.42-2.98,.95-1.91,1.38-.51,2.98,2.34,3.11,3.37,1.43v11.05l-2.35,16.67-14.88-.52-13.3,4.02-12.45,5.62-6.06,10.02,1.98,6.67-.69,7.96Z"/>
    <g id="Group_97" data-name="Group 97">
      <path id="Path_84" data-name="Path 84" class="cls-2" d="M184.57,107.97c2-1.49,3.66-3.39,4.89-5.56-.08-2.16-.21-4.33-.43-6.49-.76-4.81-.96-9.71-1.94-14.48,0,.04,.02,.08,.02,.12-.12-.59-.24-1.18-.32-1.78l.13-.15c.66-.19,1.13-.76,1.19-1.44l-.02,.02c.57-.76,.92-2.25-.21-2.67-.97-4.04-5.41-7.45-7.6-2.15-1.36,2.15-.16,4.44,1.18,6.25-.05,.77-.11,1.53-.15,2.3,0-.07,0-.13,.01-.2-.11,5.48,.15,10.97,.77,16.42,.31,1.62-.03,10.76,2.48,9.8h0Zm2.03-12.34c-.02-.38-.05-.76-.07-1.14,.06,.38,.12,.76,.18,1.14h-.11Z"/>
      <path id="Path_85" data-name="Path 85" class="cls-2" d="M189.08,152.2c1.16-.16,1.1-1.61,1.28-2.5,3.62-1.74,1.64-20.21,2.35-24.79v.03c.02-.89,.19-1.77,.15-2.66h0c-2.18-3.47-2.23,7.14-2.36,8.22-1.51,.13-.96,2.15-1.14,3.19-.23,.09-.41,.26-.54,.47-.37-2.16-2.47-1.4-2.24,.56-1.29,1.39-.6,3.86-.68,5.65,.25,1.83-.77,4.04,.18,5.64,.26,1.42-.59,4.46,1.53,4.56,.02,.79,.6,1.7,1.47,1.63h0Z"/>
      <path id="Path_86" data-name="Path 86" class="cls-3" d="M210.84,46.62c6.09,.04,2.3-5.09-1.71-3.95-2.38,1.41-.24,3.66,1.71,3.95Z"/>
      <path id="Path_87" data-name="Path 87" class="cls-3" d="M191.65,46.11c4.19-.13,3.84-3.47,.17-4.39-2.03-.79-8.95-.86-6.8,2.79,2.02,1.13,4.32,1.68,6.63,1.6Z"/>
      <path id="Path_88" data-name="Path 88" d="M205.01,57.91c2.58-.41,3.07-3.24,2.72-5.42-.02-.7,.26-1.55-.29-2.1-2.13-1.09-4.54-1.48-6.9-1.12-1.02,2.74,.31,9.78,4.47,8.65h0Zm-1.03-1.17c-.26,0-.52-.06-.77-.14l.05,.02h0s.02,0,.03,.01c-1.5-1.12-1.56-3.44-1.75-5.18v.1c-.01-.36-.03-.72-.02-1.08,1.22-.08,2.44,0,3.64,.23h-.07s.88,.15,.88,.15c.37,2.12,1.43,6.01-1.99,5.88h0Z"/>
      <path id="Path_89" data-name="Path 89" d="M205.18,46.62c.14-.02,.27-.04,.4-.08h.03s0-.01-.01-.01c2.76-.65,1.82-4.13,.94-5.99-.69-1.66-2.28-2.75-3.27-4.1-.19-.6-.05-3.57-1.17-2.48h0c-.04,.38-.05,.76-.02,1.15v-.08c0,.07,0,.13,0,.2,0-.03,0-.05,0-.08-.39,2.59,1.69,3.17,2.95,5,3.39,6.36-.2,5.94-5.02,3.9-2.02,1.54,4.23,2.62,5.18,2.57h0Z"/>
      <path id="Path_90" data-name="Path 90" d="M211.26,39.28c4.31-1.18,1.7-6.49-1.6-7.08-2.09-.2-4.06,1.02-4.81,2.98-.13,2.91,3.85,4.67,6.41,4.1Zm-2.01-1.08c-.32-.03-.63-.1-.92-.2,0,0,0,0,.01,0-.02,0-.04-.01-.06-.02h.03c-1.13-.34-2.06-1.14-2.59-2.2,1.66-2.83,5.23-3.04,6.73,.06-.79,1.09-.37,2.27-2.34,2.32h0c-.29,.03-.57,.05-.86,.04h0Z"/>
      <path id="Path_91" data-name="Path 91" d="M210.13,37.97c1.77-.46,1.25-3.25-.37-3.57-2.62-.38-1.92,3.99,.37,3.57Z"/>
      <path id="Path_92" data-name="Path 92" d="M189.23,38.4c4.72-.61,5.51-4.9,1.35-7.19-3.17-1.56-7.62-.19-8.65,3.34,1.17,2.89,4.25,4.52,7.29,3.85h0Zm-2.07-.96c-1.79,.08-3.17-1.4-4.11-2.76,.98-1.35,2.21-2.78,4.01-2.81h0c.58-.07,1.17-.04,1.75,.09h-.04s.05,0,.08,0h0l.12,.02h0c1.33,.24,2.49,1.05,3.19,2.21-.54,2.68-2.44,3.24-4.97,3.25h0Z"/>
      <path id="Path_93" data-name="Path 93" d="M189.59,36.45c2.44-.9,.84-4.64-1.5-3.8-2.1,.76-.49,4.56,1.5,3.8Z"/>
      <path id="Path_94" data-name="Path 94" d="M209.41,40.84c.1,0,.17-.1,.16-.19,0-.01,0-.03,0-.04,.1-.45-.53-.54-.83-.71l.04,.02c-.55-.24-1.07-.53-1.56-.87h0c-1.61-.93-1.76-3.75-2.6-3.74-1.36,.44,.75,2.87,1.2,3.57,.92,.97,2.11,1.62,3.42,1.86,.04,.07,.11,.11,.18,.11h0Z"/>
      <path id="Path_95" data-name="Path 95" d="M189.74,40.2c3.45,.24,5.34-5.04,3.66-4.72-.19,2.01-1.87,3.54-3.88,3.54-.68,.13-.41,1.23,.23,1.18Z"/>
      <path id="Path_96" data-name="Path 96" d="M212.2,45.99c-.23-.78-.52-1.89-1.26-2.29h0c-.34-.04-.34,.47-.05,.55,.49,.61,.24,1.79,.93,2.14,.19,.01,.36-.13,.37-.32,0-.03,0-.05,0-.08h0Z"/>
      <path id="Path_97" data-name="Path 97" d="M209.65,45.9c.93-.22,.14-1.47,.04-2.06,.02-.39-.31-.81-.73-.63-.5,.15,.05,2.91,.69,2.7Z"/>
      <path id="Path_98" data-name="Path 98" d="M192.49,45.38c1.04-.38-.3-1.63-.47-2.27,0,0,0,.01,0,.02-.02-.03-.03-.06-.04-.1,0,0,0,.01,0,.02-.22-.56-.83-.11-.55,.35,.38,.6,.26,1.81,1.05,1.99h0Z"/>
      <path id="Path_99" data-name="Path 99" d="M189.7,45.42c1.14,0-.27-3.07-.97-2.71h0c-.55,.39,.15,1.08,.19,1.59,.14,.43,.18,1.12,.78,1.12Z"/>
      <path id="Path_100" data-name="Path 100" d="M186.34,45.3c.68-.16,.47-.96,.17-1.38,0,0,0,0,0,.01l-.05-.08,.02,.02c-.48-.52-.77-1.72-1.57-1.68-.56,.24-.2,.83,.06,1.17l-.02-.02c.51,.59,.38,2,1.38,1.97h0Z"/>
      <path id="Path_101" data-name="Path 101" d="M195.03,27.72c2.14-1.92-1.7-3.52-3.28-3.92,0,0,.01,0,.02,0-3.31-1.09-7.04-1.74-10.46-.81-1.01,.24-1.7,1.38-.84,2.2,1.6,1.32,3.88,1.21,5.82,1.64h0l.48,.09s-.02,0-.02,0c0,0,.01,0,.02,0,0,0-.02,0-.03,0,2.7,.43,5.58,1.25,8.29,.8Z"/>
      <path id="Path_102" data-name="Path 102" d="M149.89,196.18c.32-.21,.61-.49,.95-.7,7.92-.28,15.78-1.51,23.7-1.81,10.27-.73,20.58-.76,30.86-1.48,12.62-1.1,25.16-3.02,37.76-4.32-.01,0-.02,0-.03,0l.66-.07s-.09,.01-.13,.01l.35-.04h-.02l.44-.05s-.09,.01-.13,.01c19.66-1.43,39.44-1.5,59.07-3.56-.04,0-.08,.01-.12,.01,11.64-1,23.48-.26,34.91-3.06,3.1-.76,4.44-.8,4.29-4.43,.11-2.27,.91-4.77-2.31-4.78h.01l-.17-.03h.04s-.07,0-.11-.01h0c-7.57-1.19-14.86-3.59-22.37-5.04-10.8-1.92-21.48-4.4-32.34-5.96,.01,0,.02,0,.03,0l-.12-.02s.01,0,.02,0c-6.56-1.24-13.21-2-19.88-2.26,12.19-14.63,10.13-52.99,9.63-71.9,.35-3.87,1.44-7.65,1.88-11.5,1.29-1.27,2.89-2.4,3.27-4.3,.27-1.7-1.59-2.2-2.89-1.6,2-2.4-.03-5.26-2.88-3.6,1.89-3.34-1.27-4.41-4.01-3.32,.44-1.92,1.53-3.69,1.86-5.62-.18-4.47-5.13-.64-6.2,1.44-3.17,5.59-5.73,11.5-7.63,17.64-1.16,3.72-1.99,7.53-2.81,11.34-1.18,4.4-2.74,8.69-3.53,13.18-2.53,11.97-4.5,24.07-6,36.21-6.12-10.15-9.82-21.54-15.09-32.14,0,0,0,.01,.01,.02-2.37-5.67-5.15-11.16-8.31-16.43-3.75-7.01-9.68-13.52-17.72-15.29-.79-3.32-1.78-6.6-2.72-9.87,2.49,.29,5,.38,7.5,.27h-.02l.24-.02h-.1c1.33-.17,3.29-.27,3.65-1.85,.73-3.07,1.21-6.19,1.43-9.34,.35-6.7,.96-13.39,1.17-20.08,3.82,.36,2.4-2.83-.17-3.56-.29-2.33,.05-4.87-1.03-7.03,4.85,.32,11.03,.84,14.29-3.52h0c3.56-3.96,1.8-9.5-3.98-8.66,2.21-4.67-5.14-6.08-8.21-4.26,.83-3.56-3.61-6.2-6.5-4.12-4.3,2.7-5.39,5.87-11.31,4.97,.04,0,.07,0,.1,0-4.77-.4-9.51-1.52-14.32-1.05h.11c-9.02,.73-18.11,6.58-19.59,16h0s0,.06-.01,.09h0v.02h0c-.05,.48-.09,.97-.11,1.46-16.73-.22-33.46-.25-50.19-.1-25.74-.22-51.55-.64-77.22,1.72h.02s-.04,0-.06,0h0c-.24,.02-.48,.05-.72,.07h0s-.1,.01-.14,.01c0,0,.02,0,.02,0l-.19,.02s.04,0,.05,0h-.12c-2.2,.55-17.15,1.37-16.25,3.93-5.63,5.36-.44,13.8,1.21,19.93,3.54,10.6,7.63,21.01,11.2,31.59,9.29,26.28,18.38,52.65,27.65,78.95-.72,1.99-.83,4.25-1.4,6.32-.38,1.35-.43,3.27,1.19,3.79,6.98,2.43,14.02,4.66,21.11,6.7,9.49,2.56,18.8,5.72,28.26,8.37,10.28,2.66,20.61,5.09,30.71,8.36l-.15-.05c3,.99,6.05,1.77,9.05,2.76,.05,.23,.17,.44,.34,.6-.48,.27-.4,1.06,.24,.95h0Zm80.07-9.02c-13.07,1.62-26.14,3.38-39.33,3.58-13.09,.21-26.11,1.65-39.16,2.5-.1-1.89,.58-4.09-.2-5.82,.01-.61,.06-1.23,.08-1.85,.77,.38,1.75-.13,1.37-1.05,5.84-.24,11.63-.96,17.43-1.62h-.01c25.41-.97,50.85-1.07,76.24-2.69,9.62-.63,19.22-1.62,28.85-2.1,10.64-.31,21.3-.29,31.9-1.39-.01,0-.02,0-.04,0,.49-.05,.98-.1,1.47-.15h-.02s.06,0,.1-.01h0c.16-.02,.33-.03,.49-.05-.03,0-.06,0-.1,.01,10.17-.82,20.36-1.51,30.56-2.08-.03,0-.06,0-.1,0,.47-.03,.98,.18,1.42,0-.11,1.32-.1,2.66-.32,3.97-2.68,1.25-5.69,1.08-8.56,1.39-2.95,.29-5.9,.65-8.85,.93h.07c-8.93,1.33-18.02,.9-27.01,1.66,.03,0,.06,0,.1-.01-.13,.01-.26,.02-.39,.04,.03,0,.06,0,.1-.01-.83,.08-1.66,.15-2.48,.24,.03,0,.06,0,.1-.01-2.91,.15-5.8,.41-8.7,.71,.03,0,.06,0,.09-.01l-1.07,.11h.01c-13.89,1.15-27.85,.93-41.72,2.28,.05,0,.09-.01,.13-.01-4.14,.42-8.28,.94-12.41,1.46h-.02Zm-79.96-1.95c-.32,2.41-.43,4.83-.33,7.26-18.06-6.56-37.02-9.93-55.24-15.95,0,0,0,0,.01,0-.04-.02-.09-.03-.13-.04h0s-.03,0-.04-.01h0l-.14-.05h.02s-.1-.02-.1-.02c.02,0,.03,0,.05,.01l-.14-.05s0,0,.01,0l-.05-.02h0s-.1-.03-.13-.04h0c-10.83-3.17-21.62-6.4-32.27-10.11,.38-1.83,.8-3.64,1.14-5.47,.1-.07,.19-.15,.26-.25,14.82,3.9,29.75,7.51,44.31,12.35,13.4,5.08,27.41,8.16,41.21,11.88-.04-.01-.07-.02-.1-.04,.3,.1,.6,.19,.9,.29,0,0,0,0-.01,0,.26,.08,.52,.16,.77,.24h-.01Zm150.41-9.53c-10.24,.88-20.53,.53-30.78,1.21-16.45,1.63-32.96,2.21-49.46,3.12-15.76,.7-31.53,.94-47.29,1.42-7.27,.61-14.49,1.7-21.76,2.27-.15-.2-.43-.28-.66-.17-.66-.19-1.31-.41-1.96-.62l.11,.03c-11.51-3.11-23.19-5.66-34.52-9.41h0s-.06-.02-.08-.03h0c-15-5.38-30.32-9.81-45.88-13.26,4.76-.75,9.53-1.13,14.33-1.43-.03,0-.06,0-.1,.01,.2-.02,.4-.04,.6-.06h0s.06,0,.1-.01h0s.02,0,.02,0h0s.01,0,.02,0h.1c.16-.03,.33-.04,.49-.06h0c5.04-.53,10.1-.83,15.15-1.28-.03,0-.06,0-.1,.01l.44-.05h-.1c.75-.07,1.51-.15,2.26-.23-.03,0-.06,0-.1,.01,8.57-.92,17.19-1.17,25.78-1.73,.13,4.24,.86,8.43,1.21,12.65-1.26,.34-.63,4.27-.1,5.12,1.06,.94,2.76,.44,4.07,.69-.05,0-.1,0-.15,0,18.62,.43,37.21-.57,55.82-1.08,5.03-.53,10.03,.38,15.06,.13,5.08,.02,10.08-.81,15.13-1.06,0,0,0,0,0,0,.32-.07,.51-.38,.44-.7,0-.02,0-.04-.01-.05,.26-.34,.3-.8,.11-1.18l.02,.04c-.3-2.27-.48-4.55-.52-6.83h0c0-.06,0-.12,0-.19h0v-.05c-.15-3.14-.38-6.27-.74-9.39,1.63,.02,3.25-.09,4.89-.12,.15,.3,.4,.53,.71,.66,1.36,1.49,5.44,1.85,7.43,1.83,3.71,5.2,9.46,9.09,16.03,8.98,6.25,.27,13.18-.63,17.83-5.19,2.31,1.15,5.35,.84,7.91,1.35,6.03,.71,12,1.77,17.99,2.76,15.27,2.5,30.41,5.72,45.48,9.23-1.47,.12-2.95,.18-4.42,.34h.01c-8.37,.69-16.77,.88-25.11,1.89h-.1s.04,0,.05,0c-1.88,.18-3.76,.31-5.65,.47h0Zm-230.67-18.31c-2.43,0-4.76,.72-7.16,.91-9.22-26.1-17.85-52.39-27.2-78.44-3.47-10.72-7.56-21.23-11.14-31.92-1.46-5.92-6.79-13.86-1.74-19.18,23.73-5.04,48.43-4.12,72.59-4.59,23.36,.34,46.72-.16,70.08-.26-.04,1.15-.05,2.31-.06,3.46-7.64,.18-15.29,.18-22.94,.33-9.64,.71-19.27,1.9-28.94,2.11-14.84,.59-29.67,1.03-44.49,2.12-13.68,.6-27.41,.64-41.04,2.02-.23-.73-1.41-.99-1.55-.08h0c-.03,.14-.02,.29,.02,.43-.18,.3-.14,.68,.1,.93,.06,.7,.2,1.39,.4,2.07h0c5.61,16.36,10.19,33.06,15.74,49.45,2.58,8.68,6.01,17.09,8.84,25.69,4.07,13.59,9.65,26.66,14.52,39.97-.52,2.04,1.67,1.49,2.86,1.21,2.65-.41,5.32-.67,7.97-1.07h-.1c3.06-.25,6.12-.51,9.16-.97h0c.05,0,.1-.01,.15-.02-.03,0-.06,0-.09,.01,3.4-.28,6.78-.79,10.15-1.27-.03,0-.06,0-.09,.01,3.14-.3,6.29-.38,9.41-.84-.03,0-.06,0-.08,.01l.43-.05s-.06,0-.08,.01c.04,0,.08-.01,.13-.01-.03,0-.06,0-.08,.01,4.12-.34,8.24-.52,12.31-1.22h0c2.15-.23,4.31-.24,6.46-.43-.1,.02-.21,.04-.31,.06-.65,.98,2.2-.32,2.59-.2,0,.45,.02,.89,.03,1.35v-.02c.02,1.64,.24,3.27,.34,4.91-1.51,0-3.02,.07-4.53,.23,.03,0,.06,0,.1-.01-9.51,.67-19.06,.64-28.56,1.53-8.07,.48-16.1,1.59-24.18,1.75h0Zm151.59-14.53c2.09,3.67,4.8,6.91,7.15,10.4-.37-.11-.74-.23-1.12-.34h0s-.02,0-.03-.01h0c-1.17-.37-2.36-.64-3.57-.82-.56-1.85-1.16-3.69-1.75-5.54h0s0-.02,0-.02h0s0-.02-.01-.03c0,0,0,.01,0,.02-.4-1.65-1.01-3.22-1.54-4.82,.29,.38,.58,.77,.86,1.17h0Zm-92.54,9.78c-.05-.34-.1-.67-.15-1.01,.05,.33,.1,.67,.15,1.01h0Zm-46.74-2.11c-4.94,.35-9.85,.88-14.76,1.54-4.4-11.73-9.11-23.36-13.08-35.25,.01,.04,.02,.08,.04,.12-.07-.23-.14-.47-.22-.7,.01,.04,.02,.08,.04,.12-.05-.18-.11-.35-.16-.53l.04,.12c-.06-.19-.12-.38-.18-.58l.04,.12c-3.69-11.76-8.1-23.28-11.82-35.04-4.02-12.99-7.63-26.12-12.72-38.74,.01,0,.02,0,.04-.01h0c.23-.08,.17-.36,.11-.54-.5-1.9-.9-3.84-1.31-5.78,12.61-1.67,25.36-1.59,38.05-2.14,13.38-.77,26.74-1.67,40.14-1.92,11.93-.4,23.82-1.27,35.7-2.37,7.37-.28,14.75-.01,22.11-.6-.19,.17-.32,.4-.37,.65-.17,.04-.08,.32,.09,.3,.23-.05,.19-.35,.35-.48l-.02,.02c.06-.06,.12-.11,.19-.15,0,0,0,0-.01,0,.08-.05,.16-.09,.25-.12,0,0-.02,0-.02,.01,.17-.07,.35-.12,.53-.17,.01,.75,.08,1.5,.13,2.26-7.98,.96-6.62,8.3-.12,10.65,.04,1.02,.08,2.03,.12,3.05,0-.05,0-.11,0-.16,.26,7.82-.77,15.55-1.99,23.25-.52-.01-1.03-.02-1.54-.05h0c-1.36-.06-2.72-.15-4.07-.21,.04,0,.08,0,.12,0-17.73-.01-43.73-2.79-43.08,22.25,.6,11.82,2.44,23.54,5.49,34.98,1.7,7.52,4.69,14.77,6.38,22.22-4.51-.2-9.04,.05-13.5,.77h0c-2.59,.31-5.21,.28-7.8,.59,.01,0,.02,0,.03,0l-.42,.05s.06,0,.08-.01c-.97,.11-1.94,.24-2.91,.35,.03,0,.06,0,.08-.01-4.23,.25-8.44,.68-12.63,1.33,.03,0,.06,0,.09-.01-1.43,.15-2.86,.26-4.29,.42,.01,0,.03,0,.04,0-.06,0-.11,.01-.17,.02h-.04s-.17,.02-.17,.02c0,0,.01,0,.02,0-.03,0-.06,0-.09,.01h0c-.94,.11-1.88,.25-2.82,.36h0Zm139.68,.91c-1.56,.05-3.11,.1-4.67,.06-.93-5.72-1.46-11.5-1.85-17.27,.82,2.14,2.09,4.11,2.62,6.36,.26,.68,.14,1.71,.96,2.01,1.02,2.38,1.67,4.91,2.5,7.36h0c.02,.09,.05,.17,.07,.25,0,0,0-.02,0-.02,.02,.06,.04,.13,.06,.19-.01-.04-.02-.08-.04-.11,.03,.1,.06,.2,.1,.31h0c.09,.28,.17,.57,.26,.86h0Zm-26.49-30.3c-1.62,9.63-5.02,18.89-6.33,28.58-.6-2.42-1.49-4.76-2.11-7.18,.01,.03,.02,.06,.03,.1l-.04-.13v.03c-.31-1.04-.6-2.09-1.02-3.1,.04-.05,.08-.1,.12-.15h0c2.62-3.37,4.87-7.02,6.71-10.87,.63-1.44,3.12-4.85,.26-5.19-.31-.42-.66-.81-1.04-1.17,.84-.62,1.66-1.28,2.43-1.98h0s.05-.05,.08-.07h0s0,0,0,0h0s.02-.02,.03-.03l-.02,.02c.42-.38,.83-.75,1.24-1.13-.12,.76-.25,1.52-.37,2.28h0Zm6.98-9.32c-4.81,1.4-8,5.84-11.85,8.82-3.02-3.11-6.26-6.01-9.68-8.68,3.98-3.2,6.9-7.67,11.64-9.91,2.42-.88,5.72-3.34,8.23-2.83,0,0,0-.01-.01-.01h0s0-.01-.01-.02c.02,.02,.03,.05,.04,.07-1.11,1-2.68,1.37-3.78,2.4-.81,.67-2.11,2.53-.36,2.85,2.93-1.53,6.28-2.06,9.54-1.49-.85,.41-1.73,.73-2.63,.98,0,0,.02,0,.02,0-1.57,.51-3.46,.88-4.77,1.79-.82,2.63,6.14,.03,9.03,1.83-2.28,.8-4.69,.15-7.03,.29-1.15,.08-.8,1.91,.24,1.85,.5,.02,1.01-.26,1.49-.12h0c1.45,.43,2.81,1.12,4.02,2.02-1.36,.15-2.73,.21-4.1,.17h0Zm-20.11-3.77c-.83,1.02-1.72,1.98-2.55,2.99-.73-.7-2.15-2.37-2.86-.75-.76-3.02-1.78-5.96-2.66-8.95l.05,.15c-1.41-4.57-2.39-9.27-3.65-13.88,1.88-2.5,3.92-4.87,6.12-7.08,1.9-2.74,4.07-5.29,6.48-7.6l-.09,.08c.28-.24,.54-.51,.79-.79l.2,.02c4.99,4.63,8.33,10.67,12.4,16.03-.19,3.3-.27,6.61-.41,9.92-.89,.29-1.76,.66-2.62,1.03l.11-.05c-.15,.06-.3,.13-.44,.19h0l-.04,.02s-.01,0-.01,0c-.02,0-.04,.02-.06,.02,.01,0,.03-.01,.04-.02-2.76,1.14-5.29,2.77-7.47,4.8,.04-.03,.07-.06,.1-.1-.78,.68-1.48,1.43-2.11,2.25,.03-.04,.06-.07,.09-.11-.47,.59-.94,1.2-1.41,1.8h0Zm6.53-35.4c2.88,.37,5.76,.76,8.67,.89-.31,4.37-.77,8.73-.92,13.11-.47-.94-1.04-1.84-1.59-2.74,0,0,0,0,0,0l-.03-.05s0,.01,.01,.02c-.31-.53-.62-1.06-.94-1.59,.01,.02,.03,.05,.04,.07-2.26-3.42-4.43-7.01-7.39-9.89,.71,.05,1.43,.1,2.14,.18h0Zm90.06-2.12c-.59,1.55-2.18,2.24-3.4,3.19-1.49,3.63-1.75,7.92-2.43,11.83-4.58-1.84-9.07-3.86-13.77-5.36,1.8-6.05,6.28-21.09,11.72-24.07,.03,.09,.05,.19,.06,.28l-.02-.1c.04,.23,.02,.46-.04,.68,0-.03,.01-.06,.02-.08-1.03,2.13-1.88,4.34-2.75,6.53-.33,.46-.23,1.1,.23,1.43,.1,.07,.2,.12,.32,.15,1.62-.21,2.65-1.59,4.64-1.31,.01,.04,.02,.09,.02,.13,0-.04,0-.07,0-.11,.02,.21-.01,.42-.1,.61,.01-.03,.02-.06,.04-.1-.38,1.35-3.07,3.6-1.32,4.71,1.2,.38,3.5-3.11,4.66-1.98l-.05-.1c.08,.12,.11,.27,.09,.41,0-.03,.01-.06,.02-.1-.02,.11-.06,.23-.1,.34,.01-.03,.02-.06,.03-.09-.39,1.43-3.32,3.04-1.83,4.47,1.42,.3,2.43-1.58,3.96-1.43l-.02,.06Zm-113.23-.15c5.21,.71,10.45,1.28,15.7,1.67-2.13,1.91-4.04,4.04-5.72,6.36-1.97,2.19-4.27,4.13-5.66,6.77-1.51-4.94-2.81-9.94-4.57-14.8,.08,0,.17,0,.25,0h0Zm35.27-5.61c.48,2.55,1.11,5.08,1.87,7.57-1.14-.2-2.29-.27-3.45-.2,.34-3.13,.08-6.3,.59-9.41,.14,0,.29,0,.43,.01h-.01c.12,0,.24,.01,.37,.02,0,.59,.04,1.19,.16,1.77,0-.02,0-.04-.01-.07l.02,.14s0-.04-.01-.07l.02,.14s0-.02,0-.03c0,.04,.02,.09,.02,.13h0Zm-36.73,5.6c.13,.6,.28,1.2,.43,1.8-.24-.59-.44-1.19-.6-1.8,.05,0,.11,0,.17,0h0Zm34.54-9.66c-1.96,1.68-.86,8.25-1.35,10.95-9.64-1.34-19.35-1.88-28.98-3.21,0,0,.01,0,.02,0l-.08-.02h.01c-.95-.21-1.9-.36-2.87-.43,1.45-8.84,2.52-17.75,1.93-26.72,0-.78-.57-1.69-1.44-1.56-1.06-.41-2.1-.88-3.11-1.42-3.28-2.11-1.3-5.82,2.15-5.92-.03,0-.07,0-.1,.01,.24-.02,.48-.04,.73-.05,.18,.21,.5,.23,.71,.05,.02-.02,.03-.03,.05-.05,.99,.15,1.96,.42,2.89,.8,.08,3.92,.13,7.84,.23,11.76,0-.05,0-.1,0-.14-.4,3.22,2.91,2.18,4.94,2.13,1.67-.66,1.1-4.04,1.19-5.56h0s0-.22,0-.22v.03c0-5.08-.5-10.14-.72-15.21-.33-4.25,3.59-8.26,7.67-8.95h0s.05,0,.08,0c0,0-.01,0-.02,0,10.47-.22,20.59,3.5,31.03,4.15,.08,2.14,.32,4.32,.32,6.49-1.19-.35-2.39-.63-3.61-.85l.11,.02c-1.5-.27-6.96-.56-4.42,2.13,2.11,1.41,4.69,1.99,7.13,2.59,0,0-.02,0-.02,0,.34,.06,.67,.12,1.01,.17-.42,9.38-.24,18.88-1.91,28.14-.45,3.49-10.89,.64-13.53,.88h0Z"/>
      <path id="Path_103" data-name="Path 103" d="M278.53,170.48c1.26-.15,2.51-.38,3.74-.7h0c.12-.02,.25-.05,.37-.07h-.01s.04,0,.06-.01c0,0-.01,0-.02,0l.4-.08s-.06,.01-.1,.02c.87-.14,1.72-.34,2.56-.6,1.24-.77-.32-1.85-1.23-1.88-1.13-.75-4.6-.78-5.94-.5-.35,.03-.69,.08-1.04,.14,0,0,.01,0,.02,0h-.06c-.06,.02-.11,.03-.17,.04h.01c-4.82,.86-1.71,3.71,1.42,3.64h0Zm-.98-1.29c-.74-.08-1.46-.32-2.1-.71,.89-.61,1.93-.96,3-1,.6,.35,1.4,.13,2.08,.27-.03,0-.06,0-.08,0,.85,.09,1.69,.21,2.52,.37-.27,.05-.54,.1-.81,.16,.03,0,.06-.01,.1-.02l-.42,.08s.06-.01,.1-.02c-1.47,.21-2.87,.95-4.37,.87h0Z"/>
      <path id="Path_104" data-name="Path 104" d="M269.94,166.71c1.15-.13,2.92-1.28,1.49-2.35-2.47-1.09-5.29-1.08-7.75,.02-.27-.36-.78-.43-1.14-.16-.23,.18-.36,.47-.32,.76,.3,2.74,5.74,1.85,7.72,1.73h0Zm-3.44-1.28c-.88,.03-1.77-.06-2.62-.27,0-.01,0-.02,.01-.04,1.99-.65,4.14-.64,6.12,.05-1.15,.28-2.33,.37-3.51,.26h0Z"/>
      <path id="Path_105" data-name="Path 105" d="M261.03,172.39c1.57,0,5.34-1.67,2.77-3.2-2.32-.9-4.98-.4-7.4-.2-1.12-.38-2.63,1.15-1.91,2.25,1.68,1.45,4.43,1.2,6.54,1.15Zm-2.83-1.42c-.71-.07-1.42-.19-2.11-.36,.3-.23,.79-.32,.81-.77,2.04-.2,4.11-.06,6.1,.4-1.48,.74-3.16,.99-4.8,.72h0Z"/>
      <path id="Path_106" data-name="Path 106" d="M243.33,173.18c9.72,.12,6.01-5.48-1.3-3.24-3.06-.67-5.9,3.06-.85,3.16h-.01c.1,0,.21,.02,.31,.03-.02,0-.03,0-.05,0,.63,.05,1.27,.07,1.9,.06h0Zm-.37-1.46c-.74,0-1.48-.03-2.21-.12,.18-.08,.36-.15,.54-.21,.12,.03,.25,0,.32-.11,.26-.08,.59-.16,.69-.43,.1-.03,.2-.06,.31-.08-.02,0-.04,0-.06,.01,1.66-.33,3.37-.23,4.97,.3-1.46,.54-3.01,.76-4.56,.64h0Z"/>
      <path id="Path_107" data-name="Path 107" d="M233.18,169.03c8.22-1.25,4.87-6.87-2.22-3.39,0,0,0,0,.01,0-4.99,1.94-1.14,4.02,2.21,3.39Zm-2.46-1.44c-.15-.02-.29-.03-.43-.05,.36-.23,.74-.43,1.13-.59l-.08,.03c.67-.5,2.57-.02,2.32-1.23,.94-.13,1.89-.05,2.79,.25-1.17,1.69-3.86,1.64-5.73,1.59h0Z"/>
      <path id="Path_108" data-name="Path 108" d="M227.34,163.11c4.58-.81,2.06-4.22-1.42-3.69-1.57,.28-3.87,.3-4.9,1.6-.78,1.59,1.34,2.02,2.49,2.01-.03,0-.07,0-.1-.01,1.3,.15,2.62,.18,3.93,.1h0Zm-4.03-1.56c.29-.16,.42-.51,.3-.83,.67-.15,1.35-.24,2.04-.26-.02,0-.03,0-.05,0,.97-.09,1.94,.14,2.77,.66-1.4,1.07-3.42,.43-5.06,.42h0Z"/>
      <path id="Path_109" data-name="Path 109" d="M225.92,174.56c5.12-.15,3.81-3.62-1.19-3.16-.99-2.24-9.56,3.24,1.19,3.16Zm-1.03-1.4c-.72-.08-1.44-.18-2.16-.28,1.3-.77,2.87-.46,4.29-.24l-.08-.02c.09,.02,.17,.04,.26,.06l-.08-.02c.2,.04,.4,.1,.59,.17-.89,.37-1.87,.48-2.83,.32h0Z"/>
      <path id="Path_110" data-name="Path 110" class="cls-1" d="M156.67,135.67c2.59-3.19,5.63-6.03,8.29-9.18-.01,.01-.02,.02-.03,.04,2.94-3.27,5.57-6.79,7.87-10.53,.49-.63,4.5-4.61,2.26-4.49,0,0,0,0,0,0-2.23,2.24-4.26,4.68-6.07,7.28l.07-.09c-3.92,5.17-8.46,9.84-12.6,14.83-.05-.18-.1-.36-.15-.54,.01,.03,.02,.07,.03,.1-.89-2.76-1.04-5.71-2.14-8.4-1-2.35-2.12-4.64-2.93-7.08-3.12-8.79-6.57-17.45-9.51-26.3,0,0,0,.01,0,.02-.59-2.14-1.4-4.21-1.94-6.36-.1-.38-.5-.61-.88-.5-.38,.1-.61,.5-.5,.88,0,.03,.02,.07,.03,.1,2.84,8.11,5.56,16.27,8.61,24.31,0,0,0,0,0-.01,0,.01,0,.02,.01,.03,0,0,0,0,0-.01,1.61,3.27,2.5,6.81,3.82,10.19,.93,2.68,2.5,5.12,3.06,7.93,.36,2.31,.98,4.56,1.52,6.83,.02,.6,.51,1.35,1.18,.97h0Z"/>
      <path id="Path_111" data-name="Path 111" class="cls-1" d="M154.54,166.88c4.65-1.54,9.44-3.5,13.29-6.59,2.95-2.48,5.19-5.68,8.15-8.15h0c2.89-2.54,5-5.79,7.22-8.91,.41-.84,1.51-1.64,1.31-2.63-.21-.49-1.13-.08-1.01,.38-.51,.62-1,1.27-1.5,1.91,.01-.02,.02-.03,.04-.05-1.6,2.18-3.35,4.26-5.22,6.21l.08-.07c-4.35,3.47-7.71,7.99-12.25,11.21-2.93,1.64-6,3.05-9.05,4.46,.02-.01,.04-.02,.06-.03-2,1-4.57,1-6.13-.79,.02,.02,.05,.05,.07,.07-1.34-1.43-2.77-2.78-4.28-4.03-2.38-2.45-4.48-5.11-7.12-7.31l.07,.07-.18-.18,.07,.07c-1.42-.88-6.21-8.43-7.26-7.3-.54,.67,.22,1.26,.69,1.69,3.06,3.15,5.57,6.82,9.06,9.56,1.95,2.5,4.15,4.79,6.56,6.84,1.79,2.26,4.26,4.34,7.35,3.57h0Z"/>
      <path id="Path_112" data-name="Path 112" class="cls-1" d="M189.16,163.17c.29-.02,.52-.27,.5-.56,0-.01,0-.03,0-.04-.49-2.37-.13-5-.74-7.27-.94-.23-.29,3.58-.44,4.3v-.02c.24,.98-.48,3.27,.69,3.6h0Z"/>
      <path id="Path_113" data-name="Path 113" class="cls-1" d="M205.93,98.23c1.22-1.56,1.6-3.58,2.62-5.25,0,0,0,.02-.01,.02,0-.02,.02-.03,.02-.05v.02c.53-.86,.94-2.17-.27-2.64-1.71-1.17-3.08-2.76-4.7-4.06,2.07-1.36,4.52-2.37,6.25-4.16,.48-1.31-.83-2.56-1.5-3.58,.02,.02,.04,.05,.06,.08-1.28-1.7-2.78-3.23-4.46-4.55-.93,.95,2.16,3.07,2.62,4.07,0,0,0,0,0-.01,.62,.8,1.19,1.63,1.71,2.49-.02-.03-.04-.06-.05-.09,.16,.27,.3,.55,.42,.83-7.64,5.17-11.11,2.82-.88,10.26-1.06,1.85-1.58,3.96-2.68,5.78-.38,.51,.36,1.37,.85,.85h0Z"/>
      <path id="Path_114" data-name="Path 114" class="cls-1" d="M165.77,116.97c.8-.63-.41-1.83-.56-2.59-.9-2.54-1.6-5.15-2.45-7.71,.01,.03,.02,.07,.03,.1-1.76-5.86-3.06-11.84-4.84-17.69,.13-1.8,2.96-2.59,4.08-3.91,1.94-1.39,1.3-2.92-.7-3.71-2.15-1.35-4.56-2.31-6.48-4,1.54-2.63,4.27-4.69,5.34-7.52-.12-.85-1.04-.55-1.31,.06-1.91,1.99-3.69,4.12-5.31,6.36-2.07,2.92,6.4,5.32,8.15,6.89-7.74,5.49-5.42,4.42-3.37,12.77,1.25,4.93,2.76,9.79,4.52,14.56,.72,1.57,1.33,5.87,2.9,6.4h0Z"/>
      <path id="Path_115" data-name="Path 115" class="cls-1" d="M204.15,14.23c.59-.07,1.19-.14,1.79-.19h-.03c.13-.01,.25-.02,.38-.03h-.08c1.55-.07,3.05-.57,4.34-1.43,.46-.05,.29-.81-.13-.72h.02s-.02,0-.03,0h0c-2.08,.91-4.32,.81-6.52,1.11-.74,.16-.44,1.37,.27,1.26h0Z"/>
      <path id="Path_116" data-name="Path 116" class="cls-1" d="M200.97,12.19c1.69,.16,6.88-.79,6.72-2.95-.2-.45-.91-.49-.98,.06-1.68,.9-3.55,1.4-5.45,1.46h.01s-.06,0-.1,0c.01,0,.03,0,.04,0-.39-.1-.79,.13-.89,.51-.1,.39,.13,.79,.51,.89,.04,.01,.09,.02,.13,.02h0Z"/>
      <path id="Path_117" data-name="Path 117" class="cls-1" d="M197.88,9.88c.79-.15,4.96-1.05,3.87-2.21-.15-.03-.21,.12-.33,.18,.01,0,.02-.02,.04-.02-.85,.75-4.34,.37-4.2,1.57,.05,.3,.32,.5,.62,.48h0Z"/>
      <path id="Path_118" data-name="Path 118" class="cls-1" d="M178.89,15.33c.53,.11,.84-.51,.35-.8-.68-.07-1.33-.27-1.92-.61-.47-.19-1.05-1.04-1.52-.47-.34,.55,.3,.96,.72,1.2-.02-.01-.04-.02-.06-.04,.73,.46,1.57,.7,2.43,.72Z"/>
      <path id="Path_119" data-name="Path 119" class="cls-1" d="M176.18,17.27c.41-.08,.3-.75-.1-.77-.68-.19-1.2-.76-1.84-.98-1.52,.73,1.24,1.76,1.93,1.75h0Z"/>
      <path id="Path_120" data-name="Path 120" class="cls-1" d="M173.8,19.52c.77-.17,.19-1.43-.43-1.03-.23-.08-.45-.19-.66-.31,0,0,0,0,.01,0-1.41-.74-1.41,1.54,1.08,1.33h0Z"/>
    </g>
  </g>
</svg>