<?xml version="1.0" encoding="utf-8"?>
<!-- Generator: Adobe Illustrator 27.0.0, SVG Export Plug-In . SVG Version: 6.00 Build 0)  -->
<svg version="1.1" id="Layer_1" xmlns="http://www.w3.org/2000/svg" xmlns:xlink="http://www.w3.org/1999/xlink" x="0px" y="0px"
	 viewBox="0 0 357 202" style="enable-background:new 0 0 357 202;" xml:space="preserve">
<style type="text/css">
	.st0{fill:#D4E157;}
	.st1{fill:#FFFFFF;}
	.st2{fill:#009688;}
</style>
<path class="st0" d="M0,15.3h263.7c51.5,0,93.2,41.8,93.2,93.2V202H93.2C41.8,201.9,0,160.2,0,108.7V15.3L0,15.3z"/>
<g>
	<path id="Path_82" class="st1" d="M22.3,27.7l6.1-1.5l12.5-1.4l29.5-1.5l31.3-0.4l32.1,0.1l26.1-0.1l9.3,0.4l12.2-9.2l32.8,4.5
		l1,6.4l-0.4,14.2l-1.1,16.2l-1.3,6.4l-3.4,0.3l-5.2-0.3h-2.6l3,12.1l14.9,12.6l10.6,21.1l17.2,33.9l7.3-46.8l5.4-22.4l4.6-10.4
		l5.8-6.4l1.3-0.1l0.4,1.2l-2,5.6l-0.6,2.1l3.1-1.5l1.8,0.4l-0.6,2.6l-0.6,1.3l3.2-0.9l1,0.3l0.1,1.5l-1.6,2.2l0.1,0.6l2.3-1
		l1.5,0.4l-0.5,1.9l-2.9,2.5l-2,10.9c0,0-6.5,23.4-6.4,23S253.7,157,253.7,157l35.4,5.4l52.6,11v5.4l-4.1,1.8l-37.4,3.1l-47.5,2.6
		l-29.8,2.8l-22.6,2.4l-24.5,0.9l-24.4,2l-4-2l-19.1-5.6l-21.8-5.7L60.2,167l1.5-8.3l-8.1-22.9l-7.9-23.5L30.2,67.4L19.6,38.2v-6.6
		L22.3,27.7L22.3,27.7L22.3,27.7z M222.5,149.9l1.1,3.6l6.5,1.2l0.9-3l-7.1-9.7l-4.3-1.9L222.5,149.9L222.5,149.9L222.5,149.9z"/>
	<path id="Path_83" class="st2" d="M118.4,102.5l3.7,20.2l6.5,24.2l-2.7,0.3l-6,0.2l-9.4,0.9l-21.7,1.9l-22.1,2.9l-5.1-13.8
		l-7.5-20.7l-8.3-24.6L35.3,62.4l-6.1-19.2l-2.3-8.3l8.2-0.9l22.1-1l32.4-1.7l31.7-1.3l15.5-1l22.4-0.8l6.4-0.4l0.3,3.4l-3,0.9
		l-1.9,1.4l-0.5,3l2.3,3.1l3.4,1.4v11l-2.4,16.7L149,68.2l-13.3,4l-12.4,5.6l-6.1,10l2,6.7L118.4,102.5L118.4,102.5z"/>
	<g id="Group_97">
		<path id="Path_84" class="st2" d="M184.6,108c2-1.5,3.7-3.4,4.9-5.6c-0.1-2.2-0.2-4.3-0.4-6.5c-0.8-4.8-1-9.7-1.9-14.5
			c0,0,0,0.1,0,0.1c-0.1-0.6-0.2-1.2-0.3-1.8l0.1-0.2c0.7-0.2,1.1-0.8,1.2-1.4l0,0c0.6-0.8,0.9-2.2-0.2-2.7c-1-4-5.4-7.4-7.6-2.2
			c-1.4,2.2-0.2,4.4,1.2,6.2c-0.1,0.8-0.1,1.5-0.1,2.3c0-0.1,0-0.1,0-0.2c-0.1,5.5,0.1,11,0.8,16.4
			C182.4,99.8,182.1,108.9,184.6,108L184.6,108L184.6,108z M186.6,95.6c0-0.4-0.1-0.8-0.1-1.1c0.1,0.4,0.1,0.8,0.2,1.1H186.6
			L186.6,95.6z"/>
		<path id="Path_85" class="st2" d="M189.1,152.2c1.2-0.2,1.1-1.6,1.3-2.5c3.6-1.7,1.6-20.2,2.4-24.8v0c0-0.9,0.2-1.8,0.1-2.7l0,0
			c-2.2-3.5-2.2,7.1-2.4,8.2c-1.5,0.1-1,2.1-1.1,3.2c-0.2,0.1-0.4,0.3-0.5,0.5c-0.4-2.2-2.5-1.4-2.2,0.6c-1.3,1.4-0.6,3.9-0.7,5.6
			c0.2,1.8-0.8,4,0.2,5.6c0.3,1.4-0.6,4.5,1.5,4.6C187.6,151.4,188.2,152.3,189.1,152.2L189.1,152.2L189.1,152.2z"/>
		<path id="Path_86" class="st0" d="M210.8,46.6c6.1,0,2.3-5.1-1.7-4C206.7,44.1,208.9,46.3,210.8,46.6z"/>
		<path id="Path_87" class="st0" d="M191.6,46.1c4.2-0.1,3.8-3.5,0.2-4.4c-2-0.8-8.9-0.9-6.8,2.8C187,45.6,189.3,46.2,191.6,46.1z"
			/>
		<path id="Path_88" d="M205,57.9c2.6-0.4,3.1-3.2,2.7-5.4c0-0.7,0.3-1.5-0.3-2.1c-2.1-1.1-4.5-1.5-6.9-1.1
			C199.5,52,200.9,59,205,57.9L205,57.9L205,57.9z M204,56.7c-0.3,0-0.5-0.1-0.8-0.1l0.1,0l0,0c0,0,0,0,0,0
			c-1.5-1.1-1.6-3.4-1.8-5.2v0.1c0-0.4,0-0.7,0-1.1c1.2-0.1,2.4,0,3.6,0.2h-0.1l0.9,0.2C206.3,53,207.4,56.9,204,56.7L204,56.7
			L204,56.7z"/>
		<path id="Path_89" d="M205.2,46.6c0.1,0,0.3,0,0.4-0.1h0c0,0,0,0,0,0c2.8-0.7,1.8-4.1,0.9-6c-0.7-1.7-2.3-2.8-3.3-4.1
			c-0.2-0.6-0.1-3.6-1.2-2.5l0,0c0,0.4-0.1,0.8,0,1.2V35c0,0.1,0,0.1,0,0.2c0,0,0,0,0-0.1c-0.4,2.6,1.7,3.2,2.9,5
			c3.4,6.4-0.2,5.9-5,3.9C198,45.6,204.2,46.7,205.2,46.6L205.2,46.6L205.2,46.6z"/>
		<path id="Path_90" d="M211.3,39.3c4.3-1.2,1.7-6.5-1.6-7.1c-2.1-0.2-4.1,1-4.8,3C204.7,38.1,208.7,39.8,211.3,39.3z M209.2,38.2
			c-0.3,0-0.6-0.1-0.9-0.2c0,0,0,0,0,0c0,0,0,0-0.1,0h0c-1.1-0.3-2.1-1.1-2.6-2.2c1.7-2.8,5.2-3,6.7,0.1c-0.8,1.1-0.4,2.3-2.3,2.3
			l0,0C209.8,38.2,209.5,38.2,209.2,38.2L209.2,38.2z"/>
		<path id="Path_91" d="M210.1,38c1.8-0.5,1.2-3.2-0.4-3.6C207.1,34,207.8,38.4,210.1,38z"/>
		<path id="Path_92" d="M189.2,38.4c4.7-0.6,5.5-4.9,1.4-7.2c-3.2-1.6-7.6-0.2-8.6,3.3C183.1,37.4,186.2,39.1,189.2,38.4L189.2,38.4
			L189.2,38.4z M187.2,37.4c-1.8,0.1-3.2-1.4-4.1-2.8c1-1.3,2.2-2.8,4-2.8l0,0c0.6-0.1,1.2,0,1.8,0.1h0c0,0,0.1,0,0.1,0l0,0l0.1,0
			l0,0c1.3,0.2,2.5,1.1,3.2,2.2C191.6,36.9,189.7,37.4,187.2,37.4L187.2,37.4L187.2,37.4z"/>
		<path id="Path_93" d="M189.6,36.5c2.4-0.9,0.8-4.6-1.5-3.8C186,33.4,187.6,37.2,189.6,36.5z"/>
		<path id="Path_94" d="M209.4,40.8c0.1,0,0.2-0.1,0.2-0.2c0,0,0,0,0,0c0.1-0.5-0.5-0.5-0.8-0.7l0,0c-0.6-0.2-1.1-0.5-1.6-0.9l0,0
			c-1.6-0.9-1.8-3.8-2.6-3.7c-1.4,0.4,0.8,2.9,1.2,3.6c0.9,1,2.1,1.6,3.4,1.9C209.3,40.8,209.3,40.9,209.4,40.8L209.4,40.8
			L209.4,40.8z"/>
		<path id="Path_95" d="M189.7,40.2c3.4,0.2,5.3-5,3.7-4.7c-0.2,2-1.9,3.5-3.9,3.5C188.8,39.2,189.1,40.2,189.7,40.2L189.7,40.2z"/>
		<path id="Path_96" d="M212.2,46c-0.2-0.8-0.5-1.9-1.3-2.3l0,0c-0.3,0-0.3,0.5-0.1,0.5c0.5,0.6,0.2,1.8,0.9,2.1
			C212,46.4,212.2,46.3,212.2,46C212.2,46,212.2,46,212.2,46L212.2,46L212.2,46z"/>
		<path id="Path_97" d="M209.6,45.9c0.9-0.2,0.1-1.5,0-2.1c0-0.4-0.3-0.8-0.7-0.6C208.5,43.4,209,46.1,209.6,45.9L209.6,45.9z"/>
		<path id="Path_98" d="M192.5,45.4c1-0.4-0.3-1.6-0.5-2.3c0,0,0,0,0,0c0,0,0-0.1,0-0.1c0,0,0,0,0,0c-0.2-0.6-0.8-0.1-0.6,0.3
			C191.8,44,191.7,45.2,192.5,45.4L192.5,45.4L192.5,45.4z"/>
		<path id="Path_99" d="M189.7,45.4c1.1,0-0.3-3.1-1-2.7l0,0c-0.6,0.4,0.1,1.1,0.2,1.6C189.1,44.7,189.1,45.4,189.7,45.4z"/>
		<path id="Path_100" d="M186.3,45.3c0.7-0.2,0.5-1,0.2-1.4c0,0,0,0,0,0l-0.1-0.1l0,0c-0.5-0.5-0.8-1.7-1.6-1.7
			c-0.6,0.2-0.2,0.8,0.1,1.2l0,0C185.5,43.9,185.3,45.3,186.3,45.3L186.3,45.3L186.3,45.3z"/>
		<path id="Path_101" d="M195,27.7c2.1-1.9-1.7-3.5-3.3-3.9c0,0,0,0,0,0c-3.3-1.1-7-1.7-10.5-0.8c-1,0.2-1.7,1.4-0.8,2.2
			c1.6,1.3,3.9,1.2,5.8,1.6l0,0l0.5,0.1h0c0,0,0,0,0,0c0,0,0,0,0,0C189.4,27.4,192.3,28.2,195,27.7z"/>
		<path id="Path_102" d="M149.9,196.2c0.3-0.2,0.6-0.5,0.9-0.7c7.9-0.3,15.8-1.5,23.7-1.8c10.3-0.7,20.6-0.8,30.9-1.5
			c12.6-1.1,25.2-3,37.8-4.3c0,0,0,0,0,0l0.7-0.1c0,0-0.1,0-0.1,0l0.4,0h0l0.4-0.1c0,0-0.1,0-0.1,0c19.7-1.4,39.4-1.5,59.1-3.6
			c0,0-0.1,0-0.1,0c11.6-1,23.5-0.3,34.9-3.1c3.1-0.8,4.4-0.8,4.3-4.4c0.1-2.3,0.9-4.8-2.3-4.8h0l-0.2,0h0c0,0-0.1,0-0.1,0l0,0
			c-7.6-1.2-14.9-3.6-22.4-5c-10.8-1.9-21.5-4.4-32.3-6c0,0,0,0,0,0l-0.1,0c0,0,0,0,0,0c-6.6-1.2-13.2-2-19.9-2.3
			c12.2-14.6,10.1-53,9.6-71.9c0.4-3.9,1.4-7.7,1.9-11.5c1.3-1.3,2.9-2.4,3.3-4.3c0.3-1.7-1.6-2.2-2.9-1.6c2-2.4,0-5.3-2.9-3.6
			c1.9-3.3-1.3-4.4-4-3.3c0.4-1.9,1.5-3.7,1.9-5.6c-0.2-4.5-5.1-0.6-6.2,1.4c-3.2,5.6-5.7,11.5-7.6,17.6c-1.2,3.7-2,7.5-2.8,11.3
			c-1.2,4.4-2.7,8.7-3.5,13.2c-2.5,12-4.5,24.1-6,36.2c-6.1-10.2-9.8-21.5-15.1-32.1c0,0,0,0,0,0c-2.4-5.7-5.1-11.2-8.3-16.4
			c-3.8-7-9.7-13.5-17.7-15.3c-0.8-3.3-1.8-6.6-2.7-9.9c2.5,0.3,5,0.4,7.5,0.3h0l0.2,0h-0.1c1.3-0.2,3.3-0.3,3.6-1.8
			c0.7-3.1,1.2-6.2,1.4-9.3c0.4-6.7,1-13.4,1.2-20.1c3.8,0.4,2.4-2.8-0.2-3.6c-0.3-2.3,0.1-4.9-1-7c4.9,0.3,11,0.8,14.3-3.5l0,0
			c3.6-4,1.8-9.5-4-8.7c2.2-4.7-5.1-6.1-8.2-4.3c0.8-3.6-3.6-6.2-6.5-4.1c-4.3,2.7-5.4,5.9-11.3,5c0,0,0.1,0,0.1,0
			c-4.8-0.4-9.5-1.5-14.3-1h0.1c-9,0.7-18.1,6.6-19.6,16l0,0c0,0,0,0.1,0,0.1l0,0v0l0,0c-0.1,0.5-0.1,1-0.1,1.5
			c-16.7-0.2-33.5-0.2-50.2-0.1c-25.7-0.2-51.5-0.6-77.2,1.7h0c0,0,0,0-0.1,0l0,0c-0.2,0-0.5,0-0.7,0.1l0,0c0,0-0.1,0-0.1,0h0
			l-0.2,0c0,0,0,0,0,0h-0.1c-2.2,0.5-17.1,1.4-16.2,3.9c-5.6,5.4-0.4,13.8,1.2,19.9c3.5,10.6,7.6,21,11.2,31.6
			c9.3,26.3,18.4,52.6,27.6,78.9c-0.7,2-0.8,4.2-1.4,6.3c-0.4,1.4-0.4,3.3,1.2,3.8c7,2.4,14,4.7,21.1,6.7c9.5,2.6,18.8,5.7,28.3,8.4
			c10.3,2.7,20.6,5.1,30.7,8.4l-0.1-0.1c3,1,6.1,1.8,9.1,2.8c0.1,0.2,0.2,0.4,0.3,0.6C149.1,195.4,149.2,196.2,149.9,196.2
			L149.9,196.2L149.9,196.2z M230,187.2c-13.1,1.6-26.1,3.4-39.3,3.6c-13.1,0.2-26.1,1.6-39.2,2.5c-0.1-1.9,0.6-4.1-0.2-5.8
			c0-0.6,0.1-1.2,0.1-1.9c0.8,0.4,1.8-0.1,1.4-1.1c5.8-0.2,11.6-1,17.4-1.6h0c25.4-1,50.8-1.1,76.2-2.7c9.6-0.6,19.2-1.6,28.9-2.1
			c10.6-0.3,21.3-0.3,31.9-1.4c0,0,0,0,0,0c0.5-0.1,1-0.1,1.5-0.1h0c0,0,0.1,0,0.1,0l0,0c0.2,0,0.3,0,0.5-0.1c0,0-0.1,0-0.1,0
			c10.2-0.8,20.4-1.5,30.6-2.1c0,0-0.1,0-0.1,0c0.5,0,1,0.2,1.4,0c-0.1,1.3-0.1,2.7-0.3,4c-2.7,1.2-5.7,1.1-8.6,1.4
			c-3,0.3-5.9,0.6-8.9,0.9h0.1c-8.9,1.3-18,0.9-27,1.7c0,0,0.1,0,0.1,0c-0.1,0-0.3,0-0.4,0c0,0,0.1,0,0.1,0
			c-0.8,0.1-1.7,0.1-2.5,0.2c0,0,0.1,0,0.1,0c-2.9,0.1-5.8,0.4-8.7,0.7c0,0,0.1,0,0.1,0l-1.1,0.1h0c-13.9,1.1-27.9,0.9-41.7,2.3
			c0.1,0,0.1,0,0.1,0C238.3,186.1,234.1,186.7,230,187.2L230,187.2L230,187.2z M150,185.2c-0.3,2.4-0.4,4.8-0.3,7.3
			c-18.1-6.6-37-9.9-55.2-15.9c0,0,0,0,0,0c0,0-0.1,0-0.1,0l0,0c0,0,0,0,0,0l0,0l-0.1-0.1h0l-0.1,0c0,0,0,0,0.1,0l-0.1-0.1
			c0,0,0,0,0,0l-0.1,0l0,0c0,0-0.1,0-0.1,0l0,0c-10.8-3.2-21.6-6.4-32.3-10.1c0.4-1.8,0.8-3.6,1.1-5.5c0.1-0.1,0.2-0.1,0.3-0.2
			c14.8,3.9,29.8,7.5,44.3,12.4c13.4,5.1,27.4,8.2,41.2,11.9c0,0-0.1,0-0.1,0c0.3,0.1,0.6,0.2,0.9,0.3c0,0,0,0,0,0
			C149.5,185,149.8,185.1,150,185.2L150,185.2L150,185.2z M300.4,175.7c-10.2,0.9-20.5,0.5-30.8,1.2c-16.4,1.6-33,2.2-49.5,3.1
			c-15.8,0.7-31.5,0.9-47.3,1.4c-7.3,0.6-14.5,1.7-21.8,2.3c-0.1-0.2-0.4-0.3-0.7-0.2c-0.7-0.2-1.3-0.4-2-0.6l0.1,0
			c-11.5-3.1-23.2-5.7-34.5-9.4l0,0c0,0-0.1,0-0.1,0l0,0c-15-5.4-30.3-9.8-45.9-13.3c4.8-0.8,9.5-1.1,14.3-1.4c0,0-0.1,0-0.1,0
			c0.2,0,0.4,0,0.6-0.1l0,0c0,0,0.1,0,0.1,0l0,0h0l0,0c0,0,0,0,0,0h0.1c0.2,0,0.3,0,0.5-0.1l0,0c5-0.5,10.1-0.8,15.2-1.3
			c0,0-0.1,0-0.1,0l0.4-0.1h-0.1c0.8-0.1,1.5-0.1,2.3-0.2c0,0-0.1,0-0.1,0c8.6-0.9,17.2-1.2,25.8-1.7c0.1,4.2,0.9,8.4,1.2,12.6
			c-1.3,0.3-0.6,4.3-0.1,5.1c1.1,0.9,2.8,0.4,4.1,0.7c-0.1,0-0.1,0-0.1,0c18.6,0.4,37.2-0.6,55.8-1.1c5-0.5,10,0.4,15.1,0.1
			c5.1,0,10.1-0.8,15.1-1.1l0,0c0.3-0.1,0.5-0.4,0.4-0.7c0,0,0,0,0-0.1c0.3-0.3,0.3-0.8,0.1-1.2l0,0c-0.3-2.3-0.5-4.6-0.5-6.8l0,0
			c0-0.1,0-0.1,0-0.2l0,0v-0.1c-0.1-3.1-0.4-6.3-0.7-9.4c1.6,0,3.2-0.1,4.9-0.1c0.1,0.3,0.4,0.5,0.7,0.7c1.4,1.5,5.4,1.9,7.4,1.8
			c3.7,5.2,9.5,9.1,16,9c6.2,0.3,13.2-0.6,17.8-5.2c2.3,1.1,5.4,0.8,7.9,1.4c6,0.7,12,1.8,18,2.8c15.3,2.5,30.4,5.7,45.5,9.2
			c-1.5,0.1-3,0.2-4.4,0.3h0c-8.4,0.7-16.8,0.9-25.1,1.9H306c0,0,0,0,0,0C304.2,175.4,302.3,175.6,300.4,175.7L300.4,175.7
			L300.4,175.7z M69.7,157.4c-2.4,0-4.8,0.7-7.2,0.9c-9.2-26.1-17.9-52.4-27.2-78.4c-3.5-10.7-7.6-21.2-11.1-31.9
			c-1.5-5.9-6.8-13.9-1.7-19.2c23.7-5,48.4-4.1,72.6-4.6c23.4,0.3,46.7-0.2,70.1-0.3c0,1.1-0.1,2.3-0.1,3.5
			c-7.6,0.2-15.3,0.2-22.9,0.3c-9.6,0.7-19.3,1.9-28.9,2.1c-14.8,0.6-29.7,1-44.5,2.1c-13.7,0.6-27.4,0.6-41,2
			c-0.2-0.7-1.4-1-1.5-0.1l0,0c0,0.1,0,0.3,0,0.4C26,34.6,26,35,26.3,35.2c0.1,0.7,0.2,1.4,0.4,2.1l0,0
			c5.6,16.4,10.2,33.1,15.7,49.4c2.6,8.7,6,17.1,8.8,25.7c4.1,13.6,9.6,26.7,14.5,40c-0.5,2,1.7,1.5,2.9,1.2c2.7-0.4,5.3-0.7,8-1.1
			h-0.1c3.1-0.2,6.1-0.5,9.2-1l0,0c0.1,0,0.1,0,0.2,0c0,0-0.1,0-0.1,0c3.4-0.3,6.8-0.8,10.2-1.3c0,0-0.1,0-0.1,0
			c3.1-0.3,6.3-0.4,9.4-0.8c0,0-0.1,0-0.1,0l0.4-0.1c0,0-0.1,0-0.1,0c0,0,0.1,0,0.1,0c0,0-0.1,0-0.1,0c4.1-0.3,8.2-0.5,12.3-1.2l0,0
			c2.2-0.2,4.3-0.2,6.5-0.4c-0.1,0-0.2,0-0.3,0.1c-0.7,1,2.2-0.3,2.6-0.2c0,0.4,0,0.9,0,1.4v0c0,1.6,0.2,3.3,0.3,4.9
			c-1.5,0-3,0.1-4.5,0.2c0,0,0.1,0,0.1,0c-9.5,0.7-19.1,0.6-28.6,1.5C85.9,156.1,77.8,157.2,69.7,157.4L69.7,157.4L69.7,157.4z
			 M221.3,142.8c2.1,3.7,4.8,6.9,7.1,10.4c-0.4-0.1-0.7-0.2-1.1-0.3l0,0c0,0,0,0,0,0l0,0c-1.2-0.4-2.4-0.6-3.6-0.8
			c-0.6-1.9-1.2-3.7-1.8-5.5l0,0v0l0,0c0,0,0,0,0,0c0,0,0,0,0,0c-0.4-1.6-1-3.2-1.5-4.8C220.8,142.1,221,142.4,221.3,142.8
			L221.3,142.8L221.3,142.8z M128.8,152.6c-0.1-0.3-0.1-0.7-0.1-1C128.7,151.9,128.7,152.3,128.8,152.6L128.8,152.6z M82.1,150.5
			c-4.9,0.4-9.8,0.9-14.8,1.5c-4.4-11.7-9.1-23.4-13.1-35.2c0,0,0,0.1,0,0.1c-0.1-0.2-0.1-0.5-0.2-0.7c0,0,0,0.1,0,0.1
			c0-0.2-0.1-0.3-0.2-0.5l0,0.1c-0.1-0.2-0.1-0.4-0.2-0.6l0,0.1c-3.7-11.8-8.1-23.3-11.8-35c-4-13-7.6-26.1-12.7-38.7c0,0,0,0,0,0
			l0,0c0.2-0.1,0.2-0.4,0.1-0.5c-0.5-1.9-0.9-3.8-1.3-5.8c12.6-1.7,25.4-1.6,38.1-2.1c13.4-0.8,26.7-1.7,40.1-1.9
			c11.9-0.4,23.8-1.3,35.7-2.4c7.4-0.3,14.8,0,22.1-0.6c-0.2,0.2-0.3,0.4-0.4,0.6c-0.2,0-0.1,0.3,0.1,0.3c0.2,0,0.2-0.4,0.4-0.5l0,0
			c0.1-0.1,0.1-0.1,0.2-0.1c0,0,0,0,0,0c0.1,0,0.2-0.1,0.2-0.1c0,0,0,0,0,0c0.2-0.1,0.4-0.1,0.5-0.2c0,0.8,0.1,1.5,0.1,2.3
			c-8,1-6.6,8.3-0.1,10.6c0,1,0.1,2,0.1,3c0,0,0-0.1,0-0.2c0.3,7.8-0.8,15.5-2,23.3c-0.5,0-1,0-1.5-0.1l0,0
			c-1.4-0.1-2.7-0.2-4.1-0.2c0,0,0.1,0,0.1,0c-17.7,0-43.7-2.8-43.1,22.2c0.6,11.8,2.4,23.5,5.5,35c1.7,7.5,4.7,14.8,6.4,22.2
			c-4.5-0.2-9,0.1-13.5,0.8l0,0c-2.6,0.3-5.2,0.3-7.8,0.6c0,0,0,0,0,0l-0.4,0.1c0,0,0.1,0,0.1,0c-1,0.1-1.9,0.2-2.9,0.4
			c0,0,0.1,0,0.1,0c-4.2,0.2-8.4,0.7-12.6,1.3c0,0,0.1,0,0.1,0c-1.4,0.1-2.9,0.3-4.3,0.4c0,0,0,0,0,0c-0.1,0-0.1,0-0.2,0h0l-0.2,0
			c0,0,0,0,0,0c0,0-0.1,0-0.1,0l0,0C83.9,150.3,83,150.4,82.1,150.5L82.1,150.5L82.1,150.5z M221.7,151.4c-1.6,0.1-3.1,0.1-4.7,0.1
			c-0.9-5.7-1.5-11.5-1.9-17.3c0.8,2.1,2.1,4.1,2.6,6.4c0.3,0.7,0.1,1.7,1,2c1,2.4,1.7,4.9,2.5,7.4l0,0c0,0.1,0.1,0.2,0.1,0.2v0
			c0,0.1,0,0.1,0.1,0.2c0,0,0-0.1,0-0.1c0,0.1,0.1,0.2,0.1,0.3l0,0C221.6,150.8,221.7,151.1,221.7,151.4L221.7,151.4L221.7,151.4z
			 M195.2,121.1c-1.6,9.6-5,18.9-6.3,28.6c-0.6-2.4-1.5-4.8-2.1-7.2c0,0,0,0.1,0,0.1l0-0.1v0c-0.3-1-0.6-2.1-1-3.1
			c0-0.1,0.1-0.1,0.1-0.1l0,0c2.6-3.4,4.9-7,6.7-10.9c0.6-1.4,3.1-4.8,0.3-5.2c-0.3-0.4-0.7-0.8-1-1.2c0.8-0.6,1.7-1.3,2.4-2l0,0
			c0,0,0.1-0.1,0.1-0.1l0,0l0,0l0,0c0,0,0,0,0,0l0,0c0.4-0.4,0.8-0.8,1.2-1.1C195.5,119.6,195.3,120.4,195.2,121.1L195.2,121.1
			L195.2,121.1z M202.2,111.8c-4.8,1.4-8,5.8-11.9,8.8c-3-3.1-6.3-6-9.7-8.7c4-3.2,6.9-7.7,11.6-9.9c2.4-0.9,5.7-3.3,8.2-2.8
			c0,0,0,0,0,0l0,0c0,0,0,0,0,0c0,0,0,0.1,0,0.1c-1.1,1-2.7,1.4-3.8,2.4c-0.8,0.7-2.1,2.5-0.4,2.8c2.9-1.5,6.3-2.1,9.5-1.5
			c-0.9,0.4-1.7,0.7-2.6,1h0c-1.6,0.5-3.5,0.9-4.8,1.8c-0.8,2.6,6.1,0,9,1.8c-2.3,0.8-4.7,0.2-7,0.3c-1.1,0.1-0.8,1.9,0.2,1.8
			c0.5,0,1-0.3,1.5-0.1l0,0c1.4,0.4,2.8,1.1,4,2C205,111.8,203.6,111.8,202.2,111.8L202.2,111.8L202.2,111.8z M182.1,108
			c-0.8,1-1.7,2-2.6,3c-0.7-0.7-2.1-2.4-2.9-0.8c-0.8-3-1.8-6-2.7-8.9l0.1,0.2c-1.4-4.6-2.4-9.3-3.6-13.9c1.9-2.5,3.9-4.9,6.1-7.1
			c1.9-2.7,4.1-5.3,6.5-7.6l-0.1,0.1c0.3-0.2,0.5-0.5,0.8-0.8l0.2,0c5,4.6,8.3,10.7,12.4,16c-0.2,3.3-0.3,6.6-0.4,9.9
			c-0.9,0.3-1.8,0.7-2.6,1l0.1-0.1c-0.1,0.1-0.3,0.1-0.4,0.2l0,0l0,0h0c0,0,0,0-0.1,0c0,0,0,0,0,0c-2.8,1.1-5.3,2.8-7.5,4.8
			c0,0,0.1-0.1,0.1-0.1c-0.8,0.7-1.5,1.4-2.1,2.2c0,0,0.1-0.1,0.1-0.1C183,106.8,182.6,107.4,182.1,108L182.1,108L182.1,108z
			 M188.6,72.6c2.9,0.4,5.8,0.8,8.7,0.9c-0.3,4.4-0.8,8.7-0.9,13.1c-0.5-0.9-1-1.8-1.6-2.7l0,0l0-0.1c0,0,0,0,0,0
			c-0.3-0.5-0.6-1.1-0.9-1.6c0,0,0,0.1,0,0.1c-2.3-3.4-4.4-7-7.4-9.9C187.2,72.5,187.9,72.5,188.6,72.6L188.6,72.6L188.6,72.6z
			 M278.7,70.5c-0.6,1.6-2.2,2.2-3.4,3.2c-1.5,3.6-1.8,7.9-2.4,11.8c-4.6-1.8-9.1-3.9-13.8-5.4c1.8-6.1,6.3-21.1,11.7-24.1
			c0,0.1,0,0.2,0.1,0.3l0-0.1c0,0.2,0,0.5,0,0.7c0,0,0-0.1,0-0.1c-1,2.1-1.9,4.3-2.8,6.5c-0.3,0.5-0.2,1.1,0.2,1.4
			c0.1,0.1,0.2,0.1,0.3,0.2c1.6-0.2,2.6-1.6,4.6-1.3c0,0,0,0.1,0,0.1c0,0,0-0.1,0-0.1c0,0.2,0,0.4-0.1,0.6c0,0,0-0.1,0-0.1
			c-0.4,1.3-3.1,3.6-1.3,4.7c1.2,0.4,3.5-3.1,4.7-2l0-0.1c0.1,0.1,0.1,0.3,0.1,0.4c0,0,0-0.1,0-0.1c0,0.1-0.1,0.2-0.1,0.3
			c0,0,0-0.1,0-0.1c-0.4,1.4-3.3,3-1.8,4.5C276.2,72.2,277.2,70.3,278.7,70.5L278.7,70.5L278.7,70.5z M165.5,70.4
			c5.2,0.7,10.4,1.3,15.7,1.7c-2.1,1.9-4,4-5.7,6.4c-2,2.2-4.3,4.1-5.7,6.8c-1.5-4.9-2.8-9.9-4.6-14.8
			C165.3,70.4,165.4,70.4,165.5,70.4L165.5,70.4L165.5,70.4z M200.7,64.7c0.5,2.6,1.1,5.1,1.9,7.6c-1.1-0.2-2.3-0.3-3.4-0.2
			c0.3-3.1,0.1-6.3,0.6-9.4c0.1,0,0.3,0,0.4,0h0c0.1,0,0.2,0,0.4,0c0,0.6,0,1.2,0.2,1.8c0,0,0,0,0-0.1l0,0.1c0,0,0,0,0-0.1
			L200.7,64.7c0-0.1,0-0.1,0-0.1C200.7,64.7,200.7,64.7,200.7,64.7L200.7,64.7L200.7,64.7z M164,70.3c0.1,0.6,0.3,1.2,0.4,1.8
			c-0.2-0.6-0.4-1.2-0.6-1.8C163.9,70.3,163.9,70.3,164,70.3L164,70.3L164,70.3z M198.5,60.7c-2,1.7-0.9,8.2-1.4,11
			c-9.6-1.3-19.4-1.9-29-3.2c0,0,0,0,0,0l-0.1,0h0c-0.9-0.2-1.9-0.4-2.9-0.4c1.4-8.8,2.5-17.8,1.9-26.7c0-0.8-0.6-1.7-1.4-1.6
			c-1.1-0.4-2.1-0.9-3.1-1.4c-3.3-2.1-1.3-5.8,2.1-5.9c0,0-0.1,0-0.1,0c0.2,0,0.5,0,0.7,0c0.2,0.2,0.5,0.2,0.7,0c0,0,0,0,0.1,0
			c1,0.2,2,0.4,2.9,0.8c0.1,3.9,0.1,7.8,0.2,11.8c0,0,0-0.1,0-0.1c-0.4,3.2,2.9,2.2,4.9,2.1c1.7-0.7,1.1-4,1.2-5.6l0,0v-0.2v0
			c0-5.1-0.5-10.1-0.7-15.2c-0.3-4.2,3.6-8.3,7.7-9l0,0c0,0,0.1,0,0.1,0c0,0,0,0,0,0c10.5-0.2,20.6,3.5,31,4.1
			c0.1,2.1,0.3,4.3,0.3,6.5c-1.2-0.4-2.4-0.6-3.6-0.9l0.1,0c-1.5-0.3-7-0.6-4.4,2.1c2.1,1.4,4.7,2,7.1,2.6h0c0.3,0.1,0.7,0.1,1,0.2
			c-0.4,9.4-0.2,18.9-1.9,28.1C211.7,63.3,201.2,60.4,198.5,60.7L198.5,60.7L198.5,60.7z"/>
		<path id="Path_103" d="M278.5,170.5c1.3-0.1,2.5-0.4,3.7-0.7l0,0c0.1,0,0.2-0.1,0.4-0.1h0c0,0,0,0,0.1,0c0,0,0,0,0,0l0.4-0.1
			c0,0-0.1,0-0.1,0c0.9-0.1,1.7-0.3,2.6-0.6c1.2-0.8-0.3-1.9-1.2-1.9c-1.1-0.8-4.6-0.8-5.9-0.5c-0.4,0-0.7,0.1-1,0.1c0,0,0,0,0,0
			h-0.1c-0.1,0-0.1,0-0.2,0h0C272.3,167.7,275.4,170.5,278.5,170.5L278.5,170.5L278.5,170.5z M277.5,169.2c-0.7-0.1-1.5-0.3-2.1-0.7
			c0.9-0.6,1.9-1,3-1c0.6,0.4,1.4,0.1,2.1,0.3c0,0-0.1,0-0.1,0c0.9,0.1,1.7,0.2,2.5,0.4c-0.3,0.1-0.5,0.1-0.8,0.2c0,0,0.1,0,0.1,0
			l-0.4,0.1c0,0,0.1,0,0.1,0C280.5,168.5,279.1,169.3,277.5,169.2L277.5,169.2L277.5,169.2z"/>
		<path id="Path_104" d="M269.9,166.7c1.1-0.1,2.9-1.3,1.5-2.4c-2.5-1.1-5.3-1.1-7.8,0c-0.3-0.4-0.8-0.4-1.1-0.2
			c-0.2,0.2-0.4,0.5-0.3,0.8C262.5,167.7,268,166.8,269.9,166.7L269.9,166.7L269.9,166.7z M266.5,165.4c-0.9,0-1.8-0.1-2.6-0.3
			c0,0,0,0,0,0c2-0.6,4.1-0.6,6.1,0.1C268.9,165.5,267.7,165.5,266.5,165.4L266.5,165.4z"/>
		<path id="Path_105" d="M261,172.4c1.6,0,5.3-1.7,2.8-3.2c-2.3-0.9-5-0.4-7.4-0.2c-1.1-0.4-2.6,1.1-1.9,2.2
			C256.2,172.7,258.9,172.4,261,172.4z M258.2,171c-0.7-0.1-1.4-0.2-2.1-0.4c0.3-0.2,0.8-0.3,0.8-0.8c2-0.2,4.1-0.1,6.1,0.4
			C261.5,171,259.8,171.2,258.2,171L258.2,171L258.2,171z"/>
		<path id="Path_106" d="M243.3,173.2c9.7,0.1,6-5.5-1.3-3.2c-3.1-0.7-5.9,3.1-0.9,3.2h0c0.1,0,0.2,0,0.3,0c0,0,0,0-0.1,0
			C242.1,173.2,242.7,173.2,243.3,173.2L243.3,173.2L243.3,173.2z M243,171.7c-0.7,0-1.5,0-2.2-0.1c0.2-0.1,0.4-0.1,0.5-0.2
			c0.1,0,0.2,0,0.3-0.1c0.3-0.1,0.6-0.2,0.7-0.4c0.1,0,0.2-0.1,0.3-0.1c0,0,0,0-0.1,0c1.7-0.3,3.4-0.2,5,0.3
			C246.1,171.6,244.5,171.8,243,171.7L243,171.7z"/>
		<path id="Path_107" d="M233.2,169c8.2-1.2,4.9-6.9-2.2-3.4c0,0,0,0,0,0C226,167.6,229.8,169.7,233.2,169z M230.7,167.6
			c-0.1,0-0.3,0-0.4-0.1c0.4-0.2,0.7-0.4,1.1-0.6l-0.1,0c0.7-0.5,2.6,0,2.3-1.2c0.9-0.1,1.9-0.1,2.8,0.2
			C235.3,167.7,232.6,167.6,230.7,167.6L230.7,167.6L230.7,167.6z"/>
		<path id="Path_108" d="M227.3,163.1c4.6-0.8,2.1-4.2-1.4-3.7c-1.6,0.3-3.9,0.3-4.9,1.6c-0.8,1.6,1.3,2,2.5,2c0,0-0.1,0-0.1,0
			C224.7,163.2,226,163.2,227.3,163.1L227.3,163.1L227.3,163.1z M223.3,161.6c0.3-0.2,0.4-0.5,0.3-0.8c0.7-0.1,1.4-0.2,2-0.3
			c0,0,0,0-0.1,0c1-0.1,1.9,0.1,2.8,0.7C227,162.2,224.9,161.6,223.3,161.6L223.3,161.6L223.3,161.6z"/>
		<path id="Path_109" d="M225.9,174.6c5.1-0.1,3.8-3.6-1.2-3.2C223.7,169.2,215.2,174.6,225.9,174.6z M224.9,173.2
			c-0.7-0.1-1.4-0.2-2.2-0.3c1.3-0.8,2.9-0.5,4.3-0.2l-0.1,0c0.1,0,0.2,0,0.3,0.1l-0.1,0c0.2,0,0.4,0.1,0.6,0.2
			C226.8,173.2,225.8,173.3,224.9,173.2L224.9,173.2L224.9,173.2z"/>
		<path id="Path_110" class="st1" d="M156.7,135.7c2.6-3.2,5.6-6,8.3-9.2c0,0,0,0,0,0c2.9-3.3,5.6-6.8,7.9-10.5
			c0.5-0.6,4.5-4.6,2.3-4.5l0,0c-2.2,2.2-4.3,4.7-6.1,7.3l0.1-0.1c-3.9,5.2-8.5,9.8-12.6,14.8c-0.1-0.2-0.1-0.4-0.1-0.5
			c0,0,0,0.1,0,0.1c-0.9-2.8-1-5.7-2.1-8.4c-1-2.3-2.1-4.6-2.9-7.1c-3.1-8.8-6.6-17.5-9.5-26.3c0,0,0,0,0,0
			c-0.6-2.1-1.4-4.2-1.9-6.4c-0.1-0.4-0.5-0.6-0.9-0.5c-0.4,0.1-0.6,0.5-0.5,0.9c0,0,0,0.1,0,0.1c2.8,8.1,5.6,16.3,8.6,24.3
			c0,0,0,0,0,0c0,0,0,0,0,0c0,0,0,0,0,0c1.6,3.3,2.5,6.8,3.8,10.2c0.9,2.7,2.5,5.1,3.1,7.9c0.4,2.3,1,4.6,1.5,6.8
			C155.5,135.3,156,136.1,156.7,135.7L156.7,135.7L156.7,135.7z"/>
		<path id="Path_111" class="st1" d="M154.5,166.9c4.6-1.5,9.4-3.5,13.3-6.6c2.9-2.5,5.2-5.7,8.1-8.1l0,0c2.9-2.5,5-5.8,7.2-8.9
			c0.4-0.8,1.5-1.6,1.3-2.6c-0.2-0.5-1.1-0.1-1,0.4c-0.5,0.6-1,1.3-1.5,1.9c0,0,0,0,0-0.1c-1.6,2.2-3.4,4.3-5.2,6.2l0.1-0.1
			c-4.4,3.5-7.7,8-12.2,11.2c-2.9,1.6-6,3.1-9.1,4.5c0,0,0,0,0.1,0c-2,1-4.6,1-6.1-0.8c0,0,0.1,0.1,0.1,0.1c-1.3-1.4-2.8-2.8-4.3-4
			c-2.4-2.4-4.5-5.1-7.1-7.3l0.1,0.1l-0.2-0.2l0.1,0.1c-1.4-0.9-6.2-8.4-7.3-7.3c-0.5,0.7,0.2,1.3,0.7,1.7c3.1,3.1,5.6,6.8,9.1,9.6
			c1.9,2.5,4.1,4.8,6.6,6.8C149,165.6,151.5,167.7,154.5,166.9L154.5,166.9L154.5,166.9z"/>
		<path id="Path_112" class="st1" d="M189.2,163.2c0.3,0,0.5-0.3,0.5-0.6c0,0,0,0,0,0c-0.5-2.4-0.1-5-0.7-7.3
			c-0.9-0.2-0.3,3.6-0.4,4.3v0C188.7,160.6,188,162.9,189.2,163.2L189.2,163.2L189.2,163.2z"/>
		<path id="Path_113" class="st1" d="M205.9,98.2c1.2-1.6,1.6-3.6,2.6-5.2c0,0,0,0,0,0c0,0,0,0,0-0.1v0c0.5-0.9,0.9-2.2-0.3-2.6
			c-1.7-1.2-3.1-2.8-4.7-4.1c2.1-1.4,4.5-2.4,6.2-4.2c0.5-1.3-0.8-2.6-1.5-3.6c0,0,0,0.1,0.1,0.1c-1.3-1.7-2.8-3.2-4.5-4.6
			c-0.9,0.9,2.2,3.1,2.6,4.1c0,0,0,0,0,0c0.6,0.8,1.2,1.6,1.7,2.5c0,0,0-0.1-0.1-0.1c0.2,0.3,0.3,0.6,0.4,0.8
			c-7.6,5.2-11.1,2.8-0.9,10.3c-1.1,1.8-1.6,4-2.7,5.8C204.7,97.9,205.4,98.8,205.9,98.2L205.9,98.2L205.9,98.2z"/>
		<path id="Path_114" class="st1" d="M165.8,117c0.8-0.6-0.4-1.8-0.6-2.6c-0.9-2.5-1.6-5.2-2.4-7.7c0,0,0,0.1,0,0.1
			c-1.8-5.9-3.1-11.8-4.8-17.7c0.1-1.8,3-2.6,4.1-3.9c1.9-1.4,1.3-2.9-0.7-3.7c-2.1-1.3-4.6-2.3-6.5-4c1.5-2.6,4.3-4.7,5.3-7.5
			c-0.1-0.8-1-0.6-1.3,0.1c-1.9,2-3.7,4.1-5.3,6.4c-2.1,2.9,6.4,5.3,8.1,6.9c-7.7,5.5-5.4,4.4-3.4,12.8c1.2,4.9,2.8,9.8,4.5,14.6
			C163.6,112.2,164.2,116.5,165.8,117L165.8,117L165.8,117z"/>
		<path id="Path_115" class="st1" d="M204.1,14.2c0.6-0.1,1.2-0.1,1.8-0.2h0c0.1,0,0.2,0,0.4,0h-0.1c1.6-0.1,3.1-0.6,4.3-1.4
			c0.5-0.1,0.3-0.8-0.1-0.7h0c0,0,0,0,0,0l0,0c-2.1,0.9-4.3,0.8-6.5,1.1C203.1,13.1,203.4,14.3,204.1,14.2L204.1,14.2L204.1,14.2z"
			/>
		<path id="Path_116" class="st1" d="M201,12.2c1.7,0.2,6.9-0.8,6.7-2.9c-0.2-0.4-0.9-0.5-1,0.1c-1.7,0.9-3.6,1.4-5.4,1.5h0
			c0,0-0.1,0-0.1,0c0,0,0,0,0,0c-0.4-0.1-0.8,0.1-0.9,0.5c-0.1,0.4,0.1,0.8,0.5,0.9C200.9,12.2,200.9,12.2,201,12.2L201,12.2
			L201,12.2z"/>
		<path id="Path_117" class="st1" d="M197.9,9.9c0.8-0.1,5-1.1,3.9-2.2c-0.1,0-0.2,0.1-0.3,0.2c0,0,0,0,0,0
			c-0.9,0.8-4.3,0.4-4.2,1.6C197.3,9.7,197.6,9.9,197.9,9.9L197.9,9.9L197.9,9.9z"/>
		<path id="Path_118" class="st1" d="M178.9,15.3c0.5,0.1,0.8-0.5,0.4-0.8c-0.7-0.1-1.3-0.3-1.9-0.6c-0.5-0.2-1.1-1-1.5-0.5
			c-0.3,0.6,0.3,1,0.7,1.2c0,0,0,0-0.1,0C177.2,15.1,178,15.3,178.9,15.3z"/>
		<path id="Path_119" class="st1" d="M176.2,17.3c0.4-0.1,0.3-0.8-0.1-0.8c-0.7-0.2-1.2-0.8-1.8-1C172.7,16.2,175.5,17.3,176.2,17.3
			L176.2,17.3L176.2,17.3z"/>
		<path id="Path_120" class="st1" d="M173.8,19.5c0.8-0.2,0.2-1.4-0.4-1c-0.2-0.1-0.4-0.2-0.7-0.3c0,0,0,0,0,0
			C171.3,17.4,171.3,19.7,173.8,19.5L173.8,19.5L173.8,19.5z"/>
	</g>
</g>
</svg>
