<svg xmlns="http://www.w3.org/2000/svg" viewBox="0 0 30.72 37.28"><defs><style>.a{fill:#073042;}.b{fill:#4285f4;}.c{fill:#3870b2;}.d{fill:#fff;}.e{fill:#3ddc84;}</style></defs><path class="a" d="M11.51,4.71H3.09A3.1,3.1,0,0,0,0,7.81,3,3,0,0,0,2.91,10.9H11.6Z"/><path class="b" d="M30.69,32.26H3.08A3.1,3.1,0,0,1,0,29.17V7.79a3.1,3.1,0,0,0,3.09,3.12h23.1s4.5-.39,4.5,3Z"/><path d="M16.11,17.39a1.72,1.72,0,1,0,0,3.44,1.86,1.86,0,0,0,.7-.14,1.71,1.71,0,0,0-.66-3.3Z"/><path class="c" d="M17.81,21.31a2.78,2.78,0,0,0,.55-3.89,2.75,2.75,0,0,0-2.14-1.11h.09a2,2,0,0,1,.49,0V14.59a.54.54,0,1,0-1.07,0v1.75a2.79,2.79,0,0,0-1.22,5L9.42,32.22h3.32l2.35-5a1.23,1.23,0,0,1,1.1-.69,1.2,1.2,0,0,1,1.09.69l2.42,5h3.36Zm-1.7-.49a1.73,1.73,0,0,1-1.71-1.73,1.78,1.78,0,0,1,.5-1.2,1.72,1.72,0,1,1,1.21,2.93Z"/><path class="d" d="M9.69,6.23H21.5V8.4H9.69Z"/><path class="a" d="M15.19,17.39a1.71,1.71,0,1,1-1.22.5A1.74,1.74,0,0,1,15.19,17.39Zm.68-1v-1.8a.54.54,0,1,0-1.07,0v1.75a2.79,2.79,0,0,0-1.22,5L7.19,35.09a1.52,1.52,0,0,0,1.5,2.18,1.51,1.51,0,0,0,1.24-.9l4.26-9.15a1.23,1.23,0,0,1,1.1-.69,1.2,1.2,0,0,1,1.09.69l4.37,9.1A1.51,1.51,0,0,0,23.47,35L16.89,21.31a2.75,2.75,0,0,0,1-2.77,2.8,2.8,0,0,0-2-2.14"/><path class="e" d="M19.79,8.14a.8.8,0,0,1-.58-1.37.82.82,0,0,1,1.15,0,.79.79,0,0,1,.23.56.8.8,0,0,1-.8.8h0m-8.89,0a.81.81,0,0,1-.81-.79.83.83,0,0,1,.24-.58.81.81,0,1,1,1.25,1,.57.57,0,0,1-.11.11.81.81,0,0,1-.57.23m9.18-4.85L21.68.51a.33.33,0,0,0-.19-.44.33.33,0,0,0-.39.1L19.48,3a10.08,10.08,0,0,0-8.26,0L9.59.17A.34.34,0,0,0,9.3,0,.39.39,0,0,0,9,.17.34.34,0,0,0,9,.51l1.61,2.78A9.52,9.52,0,0,0,5.7,10.9H25a9.52,9.52,0,0,0-4.92-7.61"/><path class="a" d="M27.92,16.83H26.65a.16.16,0,0,0-.16.16h0V37a.17.17,0,0,0,.15.16H28a2.78,2.78,0,0,0,2.77-2.78V14.05a2.77,2.77,0,0,1-2.78,2.78Z"/></svg>