<svg xmlns="http://www.w3.org/2000/svg" viewBox="0 0 325.67 367.82"><defs><style>.a{fill:#4c4c4c;}.b{fill:gray;}</style></defs><path class="a" d="M325.67,257.47V85.82L177,0V65.9l58.24,33.72c2.3,1.53,2.3,4.59,0,5.36l-69,39.85c-2.3,1.53-4.59.76-6.13,0L91.19,105c-2.3-.77-2.3-4.6,0-5.36L149.43,65.9V0L0,85.82V257.47l56.7-33V157.09c0-2.3,3.07-3.83,4.6-3.07l69,39.85c2.3,1.53,3.06,3.06,3.06,5.36v79.7c0,2.3-3.06,3.83-4.59,3.06L70.5,248.28l-56.71,33,148.66,86.59L311.11,282l-56.7-33-58.24,33.72c-2.3,1.53-4.6,0-4.6-3.07V200a6.42,6.42,0,0,1,3.07-5.36l69-39.85c2.3-1.53,4.6,0,4.6,3.06v67.44Z"/><path d="M162.45,367.82,311.11,282l-56.7-33-58.24,33.72c-2.3,1.53-4.6,0-4.6-3.07V200a6.42,6.42,0,0,1,3.07-5.36l69-39.85c2.3-1.53,4.6,0,4.6,3.06v67.44l56.7,33V85.82L162.45,180.08Z"/><path class="b" d="M177,0V65.9l58.24,33.72c2.3,1.53,2.3,4.59,0,5.36l-69,39.85c-2.3,1.53-4.59.76-6.13,0L91.19,105c-2.3-.77-2.3-4.6,0-5.36L149.43,65.9V0L0,85.82l162.45,94.26L324.9,85.82Z"/><path class="a" d="M129.5,282.76,71.26,249l-56.7,33,148.66,85.83V180.08L0,85.82V257.47l56.7-33V157.09c0-2.3,3.07-3.83,4.6-3.07l69,39.85c2.3,1.53,3.06,3.06,3.06,5.36v79.7C134.1,282,131.8,284.29,129.5,282.76Z"/></svg>